# Blender 3.3.0
# www.blender.org
mtllib Ship.mtl
o Cube
v 0.800463 2.113526 -0.067409
v 1.000000 0.113526 -0.595632
v 0.800463 2.113526 1.000000
v 1.000000 0.113526 0.766188
v 0.000000 0.113526 -1.000000
v 0.000000 2.113526 1.000000
v 0.000000 0.113526 0.749457
v 0.000000 2.113526 -0.471777
v 0.500000 0.113526 0.749457
v 0.500000 2.113526 -0.471777
v 0.500000 0.113526 -1.000000
v 0.500000 2.113526 1.000000
v 1.000000 1.113526 -0.595632
v 1.000000 1.113526 1.000000
v 0.500000 1.113526 1.000000
v 0.500000 1.113526 -1.000000
v 1.182096 1.613526 -0.595632
v 1.182096 1.613526 1.000000
v 0.000000 1.613526 -1.000000
v 0.000000 1.613526 1.000000
v 0.500000 1.613526 1.000000
v 0.500000 1.613526 -1.000000
v 1.000000 0.613526 -0.595632
v 1.000000 0.613526 1.000000
v 0.000000 0.613526 1.000000
v 0.500000 0.613526 1.000000
v 0.500000 0.613526 -1.000000
v 0.500000 0.113526 -3.672535
v 0.000000 0.113526 -3.836691
v 0.000000 0.613526 -3.609488
v 0.500000 0.613526 -3.445332
v 0.000000 1.345422 -2.924667
v 0.000000 1.113526 -3.245880
v 0.500000 1.345422 -2.760511
v 0.500000 1.113526 -3.081724
v 2.410757 0.613526 0.477215
v 2.410757 0.113526 0.477215
v 2.410757 0.613526 1.000000
v 2.410757 0.113526 1.000000
v 2.410757 1.113526 0.477215
v 2.410757 1.113526 1.000000
v 2.218485 1.113526 1.000000
v 2.218485 1.113526 0.477215
v 2.218485 0.613526 0.477215
v 2.218485 0.113526 1.000000
v 2.218485 0.613526 1.000000
v 2.218485 0.113526 0.477215
v 2.311893 1.387080 1.255884
v 2.504166 1.387080 1.255884
v 2.504166 1.387080 0.733099
v 2.311893 1.387080 0.733099
v 0.495516 3.126344 1.532356
v 0.495516 3.126344 1.358547
v 0.122187 1.369152 1.410829
v 0.122187 1.113526 1.412990
v 0.377813 1.369152 1.410829
v 0.377813 1.113526 1.412990
v 0.122187 0.857899 1.410829
v 0.377813 0.857899 1.410829
v 0.500000 1.613526 1.311458
v 0.500000 1.113526 1.311458
v 0.500000 0.613526 1.311458
v 0.000000 0.613526 1.311458
v 0.000000 1.113526 1.311458
v 0.000000 1.613526 1.311458
v 0.500000 0.613526 -1.241837
v 0.500000 1.613526 -1.241837
v 0.500000 1.113526 -1.241837
v 0.500000 0.113526 -1.241837
v 0.000000 0.113526 -1.241837
v 0.000000 1.613526 -1.241837
v 1.609242 1.113526 -0.059209
v 1.609242 0.613526 -0.059209
v 1.371364 0.613526 0.743933
v 1.609242 0.113526 -0.059209
v 1.371364 1.113526 0.743933
v 1.371364 0.113526 0.743933
v 0.497758 2.619935 0.443385
v 0.497758 2.619935 1.125566
v 0.963659 2.238087 0.269847
v 0.963659 2.238087 1.337256
v 1.345292 1.738087 -0.258376
v 1.345292 1.738087 1.337256
v -0.800463 2.113526 -0.067409
v -1.000000 0.113526 -0.595632
v -0.800463 2.113526 1.000000
v -1.000000 0.113526 0.766188
v -0.500000 0.113526 0.749457
v -0.500000 2.113526 -0.471777
v -0.500000 0.113526 -1.000000
v -0.500000 2.113526 1.000000
v -1.000000 1.113526 -0.595632
v -1.000000 1.113526 1.000000
v -0.500000 1.113526 1.000000
v -0.500000 1.113526 -1.000000
v -1.182096 1.613526 -0.595632
v -1.182096 1.613526 1.000000
v -0.500000 1.613526 1.000000
v -0.500000 1.613526 -1.000000
v -1.000000 0.613526 -0.595632
v -1.000000 0.613526 1.000000
v -0.500000 0.613526 1.000000
v -0.500000 0.613526 -1.000000
v -0.500000 0.113526 -3.672535
v -0.500000 0.613526 -3.445332
v -0.500000 1.345422 -2.760511
v -0.500000 1.113526 -3.081724
v -2.410757 0.613526 0.477215
v -2.410757 0.113526 0.477215
v -2.410757 0.613526 1.000000
v -2.410757 0.113526 1.000000
v -2.410757 1.113526 0.477215
v -2.410757 1.113526 1.000000
v -2.218485 1.113526 1.000000
v -2.218485 1.113526 0.477215
v -2.218485 0.613526 0.477215
v -2.218485 0.113526 1.000000
v -2.218485 0.613526 1.000000
v -2.218485 0.113526 0.477215
v -2.311893 1.387080 1.255884
v -2.504166 1.387080 1.255884
v -2.504166 1.387080 0.733099
v -2.311893 1.387080 0.733099
v -0.495516 3.126344 1.532356
v 0.004484 3.126344 1.532356
v 0.004484 3.126344 1.358547
v -0.495516 3.126344 1.358547
v -0.122187 1.369152 1.410829
v -0.122187 1.113526 1.412990
v -0.377813 1.369152 1.410829
v -0.377813 1.113526 1.412990
v -0.122187 0.857899 1.410829
v -0.377813 0.857899 1.410829
v -0.500000 1.613526 1.311458
v -0.500000 1.113526 1.311458
v -0.500000 0.613526 1.311458
v -0.500000 0.613526 -1.241837
v -0.500000 1.613526 -1.241837
v -0.500000 1.113526 -1.241837
v -0.500000 0.113526 -1.241837
v -1.609242 1.113526 -0.059209
v -1.609242 0.613526 -0.059209
v -1.371364 0.613526 0.743933
v -1.609242 0.113526 -0.059209
v -1.371364 1.113526 0.743933
v -1.371364 0.113526 0.743933
v 0.002242 2.619935 0.443385
v -0.497758 2.619935 0.443385
v 0.002242 2.619935 1.125566
v -0.497758 2.619935 1.125566
v -0.963659 2.238087 0.269847
v -0.963659 2.238087 1.337256
v -1.345292 1.738087 -0.258376
v -1.345292 1.738087 1.337256
vn -0.0000 -1.0000 -0.0000
vn -0.6067 0.7949 -0.0000
vn 0.4365 0.7268 -0.5303
vn -0.0000 -0.0000 1.0000
vn -0.0000 1.0000 -0.0000
vn -0.0000 0.7262 -0.6874
vn -0.0000 -0.3767 0.9263
vn 0.6288 -0.0000 -0.7775
vn -0.0000 -0.0000 -1.0000
vn 0.6337 0.0022 0.7735
vn 1.0000 -0.0000 -0.0000
vn 0.5617 -0.1023 -0.8210
vn 0.9396 -0.3422 -0.0000
vn 0.9463 -0.3231 -0.0000
vn -0.0000 -0.4480 0.8940
vn -0.0151 -0.4359 0.8999
vn 0.2566 0.5684 -0.7817
vn 0.1887 0.7962 -0.5748
vn 0.0271 0.9859 -0.1651
vn -0.2893 -0.0000 0.9572
vn 0.6608 -0.0000 -0.7505
vn -0.0000 0.6831 -0.7303
vn -0.9464 0.3231 -0.0000
vn -0.0000 -0.6831 0.7303
vn 1.0000 0.0044 -0.0000
vn -0.0000 -0.0085 1.0000
vn -0.0000 0.0085 1.0000
vn -0.6337 -0.0022 0.7735
vn -0.6337 0.0022 0.7735
vn 0.6337 -0.0022 0.7735
vn -0.0000 0.3767 0.9263
vn 0.3428 -0.2139 0.9147
vn 0.5677 -0.0000 0.8233
vn -0.0000 0.8750 -0.4842
vn -0.0000 -0.6263 0.7796
vn 0.7949 0.6067 -0.0000
vn -0.6790 -0.5183 0.5200
vn 0.6067 -0.7949 -0.0000
vn 0.3795 0.7931 -0.4765
vn 0.6067 0.7949 -0.0000
vn -0.4365 0.7268 -0.5303
vn -0.6288 -0.0000 -0.7775
vn -1.0000 -0.0000 -0.0000
vn -0.5617 -0.1023 -0.8210
vn -0.9396 -0.3422 -0.0000
vn -0.9464 -0.3231 -0.0000
vn 0.0151 -0.4359 0.8999
vn -0.2566 0.5684 -0.7817
vn -0.1887 0.7962 -0.5748
vn -0.2864 0.3964 -0.8723
vn -0.0271 0.9859 -0.1651
vn 0.2893 -0.0000 0.9572
vn -0.6608 -0.0000 -0.7505
vn 0.9463 0.3231 -0.0000
vn -1.0000 0.0044 -0.0000
vn -0.3428 -0.2139 0.9147
vn -0.5677 -0.0000 0.8233
vn -0.0000 -0.2407 0.9706
vn -0.7949 0.6067 -0.0000
vn 0.6790 -0.5183 0.5200
vn -0.6067 -0.7949 -0.0000
vn -0.3795 0.7931 -0.4765
vn 0.2864 0.3964 -0.8723
vt 0.055551 0.826265
vt 0.642522 0.776165
vt 0.347445 0.330158
vt 0.055780 0.934269
vt 0.664726 0.417976
vt 0.593023 0.878893
vt 0.644347 0.621297
vt 0.347445 0.492702
vt 0.245578 0.288966
vt 0.746142 0.205183
vt 0.746267 0.417997
vt 0.746214 0.622939
vt 0.245578 0.467179
vt 0.746443 0.000241
vt 0.137005 0.785176
vt 0.883324 0.526301
vt 0.296511 0.467179
vt 0.695281 0.622926
vt 0.956167 0.311584
vt 0.086071 0.785284
vt 0.648153 0.827098
vt 0.296511 0.288966
vt 0.137005 0.764946
vt 0.086388 0.934204
vt 0.883597 0.442776
vt 0.695333 0.417984
vt 0.883597 0.540152
vt 0.541611 0.776165
vt 0.261129 0.926398
vt 0.883597 0.702695
vt 0.261129 0.764946
vt 0.644373 0.519634
vt 0.695307 0.519647
vt 0.911765 0.255080
vt 0.547242 0.827098
vt 0.238846 0.764946
vt 0.491155 0.757615
vt 0.934935 0.540152
vt 0.475779 0.689600
vt 0.016549 0.767010
vt 0.625837 0.468797
vt 0.934935 0.702695
vt 0.593023 0.827098
vt 0.475779 0.527057
vt 0.136878 0.725838
vt 0.883379 0.585639
vt 0.746254 0.468828
vt 0.624537 0.942138
vt 0.746217 0.154351
vt 0.943280 0.204159
vt 0.695320 0.468815
vt 0.624537 0.891205
vt 0.911765 0.306001
vt 0.496786 0.827098
vt 0.085945 0.725947
vt 0.289767 0.764946
vt 0.592067 0.776165
vt 0.644361 0.570465
vt 0.746228 0.570491
vt 0.915325 0.865238
vt 0.746366 0.052688
vt 0.735172 0.902441
vt 0.695294 0.570478
vt 0.911765 0.204159
vt 0.915325 0.916171
vt 0.597698 0.827098
vt 0.187926 0.764946
vt 0.137005 0.492701
vt 0.296511 0.016722
vt 0.593023 0.936237
vt 0.491155 0.827098
vt 0.245578 0.000000
vt 0.542089 0.938523
vt 0.491155 0.880718
vt 0.542089 0.884903
vt 0.187926 0.515846
vt 0.593023 0.882617
vt 0.136457 0.527935
vt 0.883564 0.783543
vt 0.542089 0.829384
vt 0.136382 0.492702
vt 0.491155 0.936237
vt 0.883597 0.818776
vt 0.262463 0.585607
vt 0.085559 0.544653
vt 0.593023 0.827098
vt 0.085484 0.509420
vt 0.238846 0.552886
vt 0.464574 0.815867
vt 0.577127 0.632454
vt 0.464574 0.764946
vt 0.627582 0.632454
vt 0.491155 0.439447
vt 0.411319 0.815867
vt 0.500650 0.570429
vt 0.411319 0.764946
vt 0.500637 0.621260
vt 0.491155 0.492702
vt 0.464574 0.866788
vt 0.526671 0.632454
vt 0.411319 0.866788
vt 0.500663 0.519597
vt 0.385253 0.764946
vt 0.648153 0.877573
vt 0.520249 0.519602
vt 0.385253 0.817843
vt 0.526671 0.652041
vt 0.648153 0.930828
vt 0.577127 0.652041
vt 0.471569 0.492702
vt 0.520224 0.621265
vt 0.520236 0.570434
vt 0.471569 0.439447
vt 0.627582 0.652041
vt 0.740310 0.728734
vt 0.675799 0.851507
vt 0.510742 0.490139
vt 0.385253 0.894861
vt 0.720723 0.728734
vt 0.491155 0.490134
vt 0.438507 0.894861
vt 0.720723 0.675837
vt 0.495503 0.622939
vt 0.740310 0.675837
vt 0.495503 0.642525
vt 0.675799 0.904762
vt 0.086985 1.000000
vt 0.947597 0.540152
vt 0.695817 0.311584
vt 0.956167 0.524659
vt 0.086947 0.982414
vt 0.809823 0.281620
vt 0.809823 0.255646
vt 0.835863 0.281620
vt 0.835863 0.255646
vt 0.809823 0.229644
vt 0.835863 0.229644
vt 0.848310 0.305822
vt 0.593023 0.891205
vt 0.880038 0.306001
vt 0.848310 0.254991
vt 0.880038 0.255080
vt 0.848310 0.204159
vt 0.880038 0.204159
vt 0.883597 0.916171
vt 0.883597 0.865238
vt 0.797377 0.204159
vt 0.703444 0.902441
vt 0.797377 0.254991
vt 0.593023 0.942138
vt 0.797377 0.305822
vt 0.911765 0.204159
vt 0.187926 0.740310
vt 0.085893 0.701477
vt 0.289767 0.740310
vt 0.238846 0.740310
vt 0.137005 0.740310
vt 0.296511 0.264331
vt 0.245578 0.264331
vt 0.136826 0.701368
vt 0.883402 0.610109
vt 0.534141 0.714103
vt 0.323191 0.872121
vt 0.584597 0.714103
vt 0.606530 0.572108
vt 0.635052 0.714103
vt 0.409507 0.384803
vt 0.298958 0.790856
vt 0.606543 0.521276
vt 0.606517 0.622939
vt 0.385275 0.466617
vt 0.956167 0.418121
vt 0.086509 0.883849
vt 0.922530 0.478930
vt 0.695575 0.365691
vt 0.953488 0.053809
vt 0.039002 0.861892
vt 0.039232 0.969897
vt 0.953488 0.162543
vt 0.627378 0.891205
vt 0.903441 0.000000
vt 0.459154 0.655244
vt 0.000000 0.802638
vt 0.903441 0.162543
vt 0.627378 0.839410
vt 0.459154 0.492701
vt 0.801745 0.485462
vt 0.752074 0.153225
vt 0.143710 0.330158
vt 0.801644 0.377457
vt 0.664601 0.205063
vt 0.442530 0.701912
vt 0.644573 0.001707
vt 0.143710 0.492702
vt 0.194644 0.467179
vt 0.695509 0.000166
vt 0.720723 0.851507
vt 0.832390 0.526349
vt 0.746443 0.204159
vt 0.194644 0.288966
vt 0.442530 0.764946
vt 0.832251 0.377428
vt 0.648153 0.720315
vt 0.695209 0.205108
vt 0.883597 0.865238
vt 0.852985 0.153225
vt 0.137005 0.764946
vt 0.883597 0.702695
vt 0.137005 0.926398
vt 0.644424 0.103370
vt 0.695358 0.103445
vt 0.848310 0.255080
vt 0.847354 0.204159
vt 0.340688 0.764946
vt 0.903441 0.134676
vt 0.934935 0.865238
vt 0.459154 0.492701
vt 0.762924 0.544836
vt 0.625800 0.154175
vt 0.934935 0.702695
vt 0.442530 0.753706
vt 0.459154 0.655244
vt 0.695283 0.154276
vt 0.943280 0.255093
vt 0.848310 0.306001
vt 0.897810 0.204159
vt 0.832446 0.585686
vt 0.289767 0.764946
vt 0.802530 0.153225
vt 0.644499 0.052539
vt 0.695432 0.052614
vt 0.848310 0.204159
vt 0.735172 0.851507
vt 0.796898 0.204159
vt 0.391609 0.764946
vt 0.442530 0.492701
vt 0.542089 0.829384
vt 0.194644 0.016722
vt 0.542089 0.883004
vt 0.391609 0.515846
vt 0.317071 0.585607
vt 0.832615 0.766980
vt 0.542089 0.938523
vt 0.832648 0.802214
vt 0.340688 0.552886
vt 0.746267 0.869697
vt 0.817470 0.009515
vt 0.746267 0.818776
vt 0.767014 0.009515
vt 0.000000 0.439447
vt 0.799522 0.869697
vt 0.500788 0.052328
vt 0.799522 0.818776
vt 0.500863 0.001497
vt 0.000000 0.492702
vt 0.746267 0.920618
vt 0.867925 0.009515
vt 0.799522 0.920618
vt 0.500714 0.103159
vt 0.261129 0.926398
vt 0.675799 0.904762
vt 0.520300 0.103188
vt 0.261129 0.873501
vt 0.867925 0.029102
vt 0.675799 0.851507
vt 0.817470 0.029102
vt 0.019586 0.492702
vt 0.520449 0.001525
vt 0.520375 0.052357
vt 0.019586 0.439447
vt 0.767014 0.029102
vt 0.720724 0.675837
vt 0.703444 0.930828
vt 0.510742 0.132635
vt 0.825588 0.948691
vt 0.740310 0.675837
vt 0.491155 0.132607
vt 0.772333 0.948691
vt 0.740310 0.622939
vt 0.899093 0.000000
vt 0.720724 0.622939
vt 0.899093 0.019586
vt 0.703444 0.877573
vt 0.832647 0.311631
vt 0.695509 0.311509
vt 0.712153 0.622939
vt 0.137005 0.999894
vt 0.745837 0.311596
vt 0.883581 0.311584
vt 0.746443 0.311584
vt 0.136967 0.982307
vt 0.883597 0.329170
vt 0.832663 0.329218
vt 0.720723 0.638432
vt 0.784930 0.281620
vt 0.784930 0.255646
vt 0.758890 0.281620
vt 0.758890 0.255646
vt 0.784930 0.229644
vt 0.758890 0.229644
vt 0.746443 0.305822
vt 0.911765 0.255093
vt 0.880038 0.306001
vt 0.746443 0.254991
vt 0.880038 0.255080
vt 0.746443 0.204159
vt 0.880038 0.204159
vt 0.703444 0.851507
vt 0.391609 0.740310
vt 0.832469 0.610156
vt 0.289767 0.740310
vt 0.340688 0.740310
vt 0.442530 0.740310
vt 0.194644 0.264331
vt 0.860455 0.091164
vt 0.199067 0.819223
vt 0.810000 0.091164
vt 0.606671 0.050831
vt 0.759544 0.091164
vt 0.081648 0.384803
vt 0.174835 0.900488
vt 0.606596 0.101663
vt 0.606746 0.000000
vt 0.105880 0.466617
vt 0.136986 0.883741
vt 0.883461 0.427736
vt 0.720723 0.744970
vt 0.832527 0.427783
vt 0.746294 0.257476
vt 0.746052 0.365704
vt 0.687086 0.684161
vt 0.695360 0.257401
vt 0.825588 0.872585
vt 0.785087 0.449885
vt 0.784986 0.341880
vt 0.825588 0.981319
vt 0.476885 0.689600
vt 0.875635 0.818776
vt 0.442530 0.527057
vt 0.746267 0.509259
vt 0.875635 0.981319
vt 0.476885 0.741394
vt 0.442530 0.689600
s 0
f 11/22/1 2/3/1 4/8/1 9/17/1
f 1/1/2 3/4/2 81/178/2 80/177/2
f 22/55/3 10/20/3 1/1/3 17/40/3
f 21/51/4 12/26/4 6/11/4 20/47/4
f 1/1/5 10/20/5 12/24/5 3/4/5
f 18/41/4 3/5/4 12/26/4 21/51/4
f 19/45/6 8/15/6 10/20/6 22/55/6
f 5/9/1 11/22/1 9/17/1 7/13/1
f 24/58/4 14/32/4 15/33/4 26/63/4
f 63/147/7 62/143/7 59/137/7 58/136/7
f 27/66/8 16/35/8 13/28/8 23/57/8
f 44/109/9 43/107/9 40/100/9 36/90/9
f 14/32/4 18/41/4 21/51/4 15/33/4
f 61/141/10 60/138/10 56/134/10 57/135/10
f 66/153/11 69/157/11 28/68/11 31/76/11
f 16/35/12 22/54/12 17/37/12 13/28/12
f 13/27/13 17/38/13 18/42/13 14/30/13
f 41/101/14 40/99/14 50/121/14 49/118/14
f 11/21/8 27/66/8 23/57/8 2/2/8
f 67/155/11 68/156/11 35/88/11 34/84/11
f 9/18/15 26/63/15 25/59/15 7/12/15
f 4/7/16 24/58/16 26/63/16 9/18/16
f 30/75/17 33/80/17 35/86/17 31/77/17
f 33/81/18 32/78/18 34/85/18 35/87/18
f 71/160/19 67/154/19 34/85/19 32/78/19
f 68/156/11 66/153/11 31/76/11 35/88/11
f 36/89/11 40/99/11 41/101/11 38/94/11
f 37/91/11 36/89/11 38/94/11 39/96/11
f 46/112/4 45/111/4 39/97/4 38/95/4
f 47/114/9 44/109/9 36/90/9 37/92/9
f 42/105/4 46/112/4 38/95/4 41/102/4
f 45/110/1 47/113/1 37/93/1 39/98/1
f 77/171/1 75/167/1 47/113/1 45/110/1
f 76/169/20 74/165/20 46/112/20 42/105/20
f 75/166/21 73/164/21 44/109/21 47/114/21
f 74/165/20 77/170/20 45/111/20 46/112/20
f 72/163/5 76/168/5 42/103/5 43/106/5
f 73/164/21 72/162/21 43/107/21 44/109/21
f 51/124/5 48/115/5 49/119/5 50/122/5
f 40/100/22 43/107/22 51/125/22 50/123/22
f 43/108/23 42/104/23 48/116/23 51/126/23
f 42/105/24 41/102/24 49/120/24 48/117/24
f 52/127/5 53/131/5 126/291/5 125/287/5
f 79/174/25 78/172/25 53/130/25 52/128/25
f 59/137/26 57/135/26 55/133/26 58/136/26
f 57/135/27 56/134/27 54/132/27 55/133/27
f 64/149/28 63/147/28 58/136/28 55/133/28
f 65/151/29 64/149/29 55/133/29 54/132/29
f 62/143/30 61/141/30 57/135/30 59/137/30
f 60/138/31 65/151/31 54/132/31 56/134/31
f 21/52/5 20/48/5 65/150/5 60/139/5
f 26/64/11 15/34/11 61/142/11 62/144/11
f 15/34/11 21/53/11 60/140/11 61/142/11
f 25/60/1 26/65/1 62/145/1 63/146/1
f 16/36/11 27/67/11 66/153/11 68/156/11
f 19/45/5 22/55/5 67/154/5 71/160/5
f 11/22/1 5/9/1 70/159/1 69/158/1
f 22/56/11 16/36/11 68/156/11 67/155/11
f 27/67/11 11/23/11 69/157/11 66/153/11
f 23/57/21 13/28/21 72/162/21 73/164/21
f 13/29/5 14/31/5 76/168/5 72/163/5
f 24/58/32 4/7/32 77/170/32 74/165/32
f 2/2/21 23/57/21 73/164/21 75/166/21
f 14/32/33 24/58/33 74/165/33 76/169/33
f 4/8/1 2/3/1 75/167/1 77/171/1
f 12/25/25 10/19/25 78/172/25 79/174/25
f 10/20/34 8/15/34 147/325/34 78/173/34
f 78/173/34 147/325/34 126/291/34 53/131/34
f 149/330/35 79/175/35 52/129/35 125/288/35
f 82/181/36 80/176/36 81/179/36 83/184/36
f 3/6/37 18/43/37 83/185/37 81/180/37
f 18/44/38 17/39/38 82/182/38 83/186/38
f 17/40/39 1/1/39 80/177/39 82/183/39
f 90/200/1 88/195/1 87/194/1 85/189/1
f 84/187/40 151/334/40 152/335/40 86/190/40
f 99/227/41 96/218/41 84/187/41 89/198/41
f 98/223/4 20/49/4 6/10/4 91/204/4
f 148/328/34 127/293/34 126/292/34 147/326/34
f 84/187/5 86/190/5 91/202/5 89/198/5
f 97/219/4 98/223/4 91/204/4 86/191/4
f 19/46/6 99/227/6 89/198/6 8/16/6
f 5/9/1 7/13/1 88/195/1 90/200/1
f 101/230/4 102/231/4 94/211/4 93/210/4
f 63/147/7 132/299/7 133/300/7 136/306/7
f 103/234/42 100/229/42 92/206/42 95/213/42
f 116/266/9 108/247/9 112/257/9 115/264/9
f 93/210/4 94/211/4 98/223/4 97/219/4
f 135/304/29 131/298/29 130/297/29 134/301/29
f 137/309/43 105/240/43 104/236/43 140/313/43
f 95/213/44 92/206/44 96/215/44 99/226/44
f 92/205/45 93/208/45 97/220/45 96/216/45
f 113/258/46 121/275/46 122/278/46 112/256/46
f 90/199/42 85/188/42 100/229/42 103/234/42
f 138/311/43 106/241/43 107/245/43 139/312/43
f 88/196/15 7/14/15 25/61/15 102/231/15
f 87/193/47 88/196/47 102/231/47 101/230/47
f 30/74/48 105/239/48 107/243/48 33/82/48
f 33/83/49 107/244/49 106/242/49 32/79/49
f 29/71/50 104/237/50 105/239/50 30/74/50
f 71/161/51 32/79/51 106/242/51 138/310/51
f 139/312/43 107/245/43 105/240/43 137/309/43
f 108/246/43 110/251/43 113/258/43 112/256/43
f 109/248/43 111/253/43 110/251/43 108/246/43
f 118/269/4 110/252/4 111/254/4 117/268/4
f 119/271/9 109/249/9 108/247/9 116/266/9
f 114/262/4 113/259/4 110/252/4 118/269/4
f 117/267/1 111/255/1 109/250/1 119/270/1
f 146/324/1 117/267/1 119/270/1 144/320/1
f 145/322/52 114/262/52 118/269/52 143/318/52
f 144/319/53 119/271/53 116/266/53 142/317/53
f 143/318/52 118/269/52 117/268/52 146/323/52
f 141/316/5 115/263/5 114/260/5 145/321/5
f 142/317/53 116/266/53 115/264/53 141/315/53
f 123/281/5 122/279/5 121/276/5 120/272/5
f 112/257/22 122/280/22 123/282/22 115/264/22
f 115/265/54 123/283/54 120/273/54 114/261/54
f 114/262/24 120/274/24 121/277/24 113/259/24
f 127/293/5 124/284/5 125/289/5 126/292/5
f 149/329/35 125/290/35 124/285/35 150/332/35
f 150/331/55 124/286/55 127/294/55 148/327/55
f 133/300/26 132/299/26 129/296/26 131/298/26
f 131/298/27 129/296/27 128/295/27 130/297/27
f 64/149/30 129/296/30 132/299/30 63/147/30
f 65/151/10 128/295/10 129/296/10 64/149/10
f 136/306/28 133/300/28 131/298/28 135/304/28
f 134/301/31 130/297/31 128/295/31 65/151/31
f 98/224/5 134/302/5 65/152/5 20/50/5
f 102/232/43 136/307/43 135/305/43 94/212/43
f 94/212/43 135/305/43 134/303/43 98/225/43
f 25/62/1 63/148/1 136/308/1 102/233/1
f 95/214/43 139/312/43 137/309/43 103/235/43
f 19/46/5 71/161/5 138/310/5 99/227/5
f 90/200/1 140/314/1 70/159/1 5/9/1
f 99/228/43 138/311/43 139/312/43 95/214/43
f 103/235/43 137/309/43 140/313/43 90/201/43
f 100/229/53 142/317/53 141/315/53 92/206/53
f 92/207/5 141/316/5 145/321/5 93/209/5
f 101/230/56 143/318/56 146/323/56 87/193/56
f 85/188/53 144/319/53 142/317/53 100/229/53
f 93/210/57 145/322/57 143/318/57 101/230/57
f 87/194/1 146/324/1 144/320/1 85/189/1
f 91/203/55 150/331/55 148/327/55 89/197/55
f 6/10/58 149/329/58 150/332/58 91/204/58
f 89/198/34 148/328/34 147/326/34 8/16/34
f 153/338/59 154/341/59 152/336/59 151/333/59
f 86/192/60 152/337/60 154/342/60 97/221/60
f 97/222/61 154/343/61 153/339/61 96/217/61
f 96/218/62 153/340/62 151/334/62 84/187/62
f 6/11/58 12/26/58 79/175/58 149/330/58
f 28/69/1 69/158/1 70/159/1 29/72/1
f 104/238/1 29/72/1 70/159/1 140/314/1
f 28/70/63 29/73/63 30/75/63 31/77/63
