# Blender 3.3.0
# www.blender.org
mtllib Track2.mtl
o Cube
v 10.426186 1.000000 -39.523182
v 10.426186 -1.000000 -39.523182
v 10.426186 1.000000 22.116776
v 10.426186 -1.000000 22.116776
v -10.787071 1.000000 -39.523182
v -10.787071 -1.000000 -39.523182
v -10.787071 1.000000 22.116776
v -10.787071 -1.000000 22.116776
v 10.426186 -1.000000 -135.918121
v -10.787071 -1.000000 -135.918121
v 10.426186 1.000000 -135.918121
v -10.787071 1.000000 -135.918121
v 20.162245 -1.000000 -220.391510
v -1.051012 -1.000000 -220.391510
v 20.162245 1.000000 -220.391510
v -1.051012 1.000000 -220.391510
v 20.162245 -1.000000 -349.172485
v -1.051012 -1.000000 -349.172485
v 20.162245 1.000000 -349.172485
v -1.051012 1.000000 -349.172485
v -4.258911 -1.000000 -461.748596
v -25.472168 -1.000000 -461.748596
v -4.258911 1.000000 -461.748596
v -25.472168 1.000000 -461.748596
v -4.258911 -1.000000 -659.720886
v -25.472168 -1.000000 -659.720886
v -4.258911 1.000000 -659.720886
v -25.472168 1.000000 -659.720886
vn -0.0000 1.0000 -0.0000
vn -0.0000 -0.0000 1.0000
vn -1.0000 -0.0000 -0.0000
vn -0.0000 -1.0000 -0.0000
vn 1.0000 -0.0000 -0.0000
vn 0.9934 -0.0000 0.1145
vn -0.9934 -0.0000 -0.1145
vn 0.9773 -0.0000 -0.2120
vn -0.9773 -0.0000 0.2120
vn -0.0000 -0.0000 -1.0000
vt 0.625000 0.500000
vt 0.375000 0.500000
vt 0.625000 0.750000
vt 0.375000 0.750000
vt 0.625000 0.250000
vt 0.875000 0.500000
vt 0.375000 0.250000
vt 0.125000 0.500000
vt 0.875000 0.750000
vt 0.625000 1.000000
vt 0.625000 0.000000
vt 0.375000 1.000000
vt 0.375000 0.000000
vt 0.125000 0.750000
vt 0.375000 0.500000
vt 0.375000 0.250000
vt 0.125000 0.500000
vt 0.625000 0.500000
vt 0.875000 0.500000
vt 0.625000 0.250000
vt 0.375000 0.500000
vt 0.375000 0.250000
vt 0.125000 0.500000
vt 0.625000 0.500000
vt 0.625000 0.250000
vt 0.875000 0.500000
vt 0.375000 0.500000
vt 0.375000 0.250000
vt 0.125000 0.500000
vt 0.625000 0.500000
vt 0.875000 0.500000
vt 0.625000 0.250000
vt 0.375000 0.500000
vt 0.375000 0.250000
vt 0.125000 0.500000
vt 0.625000 0.500000
vt 0.625000 0.250000
vt 0.875000 0.500000
vt 0.375000 0.500000
vt 0.375000 0.250000
vt 0.125000 0.500000
vt 0.625000 0.500000
vt 0.625000 0.250000
vt 0.875000 0.500000
s 0
usemtl Material
f 1/1/1 5/6/1 7/9/1 3/3/1
f 4/4/2 3/3/2 7/10/2 8/12/2
f 8/13/3 7/11/3 5/5/3 6/7/3
f 6/8/4 2/2/4 4/4/4 8/14/4
f 2/2/5 1/1/5 3/3/5 4/4/5
f 1/1/5 2/2/5 9/15/5 11/18/5
f 12/19/1 11/18/1 15/24/1 16/26/1
f 6/7/3 5/5/3 12/20/3 10/16/3
f 2/2/4 6/8/4 10/17/4 9/15/4
f 5/6/1 1/1/1 11/18/1 12/19/1
f 14/22/3 16/25/3 20/32/3 18/28/3
f 11/18/6 9/15/6 13/21/6 15/24/6
f 10/16/7 12/20/7 16/25/7 14/22/7
f 9/15/4 10/17/4 14/23/4 13/21/4
f 20/31/1 19/30/1 23/36/1 24/38/1
f 13/21/4 14/23/4 18/29/4 17/27/4
f 16/26/1 15/24/1 19/30/1 20/31/1
f 15/24/5 13/21/5 17/27/5 19/30/5
f 23/36/5 21/33/5 25/39/5 27/42/5
f 19/30/8 17/27/8 21/33/8 23/36/8
f 18/28/9 20/32/9 24/37/9 22/34/9
f 17/27/4 18/29/4 22/35/4 21/33/4
f 26/40/10 28/43/10 27/42/10 25/39/10
f 22/34/3 24/37/3 28/43/3 26/40/3
f 21/33/4 22/35/4 26/41/4 25/39/4
f 24/38/1 23/36/1 27/42/1 28/44/1
